<?xml version="1.0" encoding="UTF-8" standalone="no"?>
<svg
   xmlns:dc="http://purl.org/dc/elements/1.1/"
   xmlns:cc="http://creativecommons.org/ns#"
   xmlns:rdf="http://www.w3.org/1999/02/22-rdf-syntax-ns#"
   xmlns:svg="http://www.w3.org/2000/svg"
   xmlns="http://www.w3.org/2000/svg"
   xmlns:sodipodi="http://sodipodi.sourceforge.net/DTD/sodipodi-0.dtd"
   xmlns:inkscape="http://www.inkscape.org/namespaces/inkscape"
   xml:space="preserve"
   width="50px"
   height="50px"
   version="1.1"
   viewBox="0 0 68 68"
   id="svg8"
   sodipodi:docname="logo.svg"
   inkscape:version="0.92.1 r15371"><metadata
     id="metadata14"><rdf:RDF><cc:Work
         rdf:about=""><dc:format>image/svg+xml</dc:format><dc:type
           rdf:resource="http://purl.org/dc/dcmitype/StillImage" /><dc:title></dc:title></cc:Work></rdf:RDF></metadata><defs
     id="defs12" /><sodipodi:namedview
     pagecolor="#ffffff"
     bordercolor="#666666"
     borderopacity="1"
     objecttolerance="10"
     gridtolerance="10"
     guidetolerance="10"
     inkscape:pageopacity="0"
     inkscape:pageshadow="2"
     inkscape:window-width="1855"
     inkscape:window-height="1056"
     id="namedview10"
     showgrid="false"
     inkscape:zoom="6.675088"
     inkscape:cx="54.645206"
     inkscape:cy="37.314874"
     inkscape:window-x="1425"
     inkscape:window-y="24"
     inkscape:window-maximized="1"
     inkscape:current-layer="Layer_x0020_1" /><g
     id="Layer_x0020_1"><metadata
       id="CorelCorpID_0Corel-Layer" /><rect
       transform="matrix(0.402255 0.402255 -0.402255 0.402255 34.1118 -5.95524)"
       width="99.6065"
       height="99.6065"
       rx="25"
       ry="25"
       style="fill: rgb(100, 240, 0);"
       id="rect3" /><path
       d="M 38,30 V 46 H 31 V 34 c 0,-2.502602 -0.235965,-2.891374 -0.235965,-2.891374 L 30.076403,29.847193 C 29.752598,29.277814 28.567047,28.64345 28.567047,28.64345 27.796257,28.388772 27.803853,28.278767 26.77079,28.254678 25.854815,28.233319 24.974532,28.64345 24.974532,28.64345 24.025468,29.127339 24.050936,29.178275 23,30 V 46 H 16 V 23 h 7 v 3 c 1,-1 2,-2 4,-3 1.407485,-0.254678 -0.130683,-0.186625 2.923597,-0.178275 1.97081,0.0054 2.64345,0.229211 4.152806,0.898129 C 35.916842,24.840438 36,25 37,27 38,25 39.872661,23.77079 40.949064,23.465176 41.847193,23.280146 42.59998,23.013241 45,23 c 2.026877,-0.01118 3.465176,0.22921 5.127339,1.796257 C 51.567047,26.560292 52,28 52,31 V 46 H 45 V 34 32 l 0.02547,-1.719854 -0.745322,-1.382017 C 43.22921,27.904883 42,28 42,28 40.796257,27.821725 39.796257,28.541579 39.796257,28.541579 39.025468,28.974532 39,29 38,30 Z"
       style="fill:#ffffff;fill-rule:nonzero"
       id="path5"
       inkscape:connector-curvature="0"
       sodipodi:nodetypes="cccscccsccccccccscccscsccccccccc" /></g></svg>